<svg xmlns="http://www.w3.org/2000/svg" viewBox="0 0 900 1080" role="img" aria-label="Abstract collage of notes and geometric frames">
  <rect width="900" height="1080" fill="#ebe4db"/>
  <rect x="82" y="82" width="736" height="916" fill="#f5f0e8" stroke="#5f554d" stroke-width="2"/>
  <rect x="126" y="126" width="306" height="386" fill="#d5c8b6" stroke="#5f554d" stroke-width="2"/>
  <rect x="470" y="126" width="304" height="182" fill="#d9d1c5" stroke="#5f554d" stroke-width="2"/>
  <rect x="470" y="330" width="304" height="182" fill="#c7b8a3" stroke="#5f554d" stroke-width="2"/>
  <rect x="126" y="564" width="648" height="318" fill="#e2d8ca" stroke="#5f554d" stroke-width="2"/>
  <path d="M166 182 H392 M166 242 H344 M166 302 H376 M166 362 H302" stroke="#5f554d" stroke-width="3"/>
  <path d="M510 180 H734 M510 388 H702" stroke="#5f554d" stroke-width="3"/>
  <circle cx="692" cy="414" r="36" fill="none" stroke="#5f554d" stroke-width="2"/>
  <circle cx="692" cy="414" r="10" fill="#5f554d"/>
  <path d="M166 626 H734 M166 706 H734 M166 786 H600" stroke="#5f554d" stroke-width="3"/>
  <rect x="166" y="914" width="222" height="40" fill="#f5f0e8" stroke="#5f554d" stroke-width="2"/>
  <rect x="412" y="914" width="322" height="40" fill="#cfc1ad" stroke="#5f554d" stroke-width="2"/>
</svg>
